<svg width="24" height="25" viewBox="0 0 24 25" fill="currentColor" xmlns="http://www.w3.org/2000/svg">
<path d="M12 0C8.324 0 5.33333 2.95132 5.33333 6.57895C5.33333 10.2066 8.324 13.1579 12 13.1579C15.676 13.1579 18.6667 10.2066 18.6667 6.57895C18.6667 2.95132 15.676 0 12 0ZM12 10.5263C9.79467 10.5263 8 8.75526 8 6.57895C8 4.40263 9.79467 2.63158 12 2.63158C14.2053 2.63158 16 4.40263 16 6.57895C16 8.75526 14.2053 10.5263 12 10.5263ZM24 25V23.6842C24 18.6066 19.812 14.4737 14.6667 14.4737H9.33333C4.18667 14.4737 0 18.6066 0 23.6842V25H2.66667V23.6842C2.66667 20.0566 5.65733 17.1053 9.33333 17.1053H14.6667C18.3427 17.1053 21.3333 20.0566 21.3333 23.6842V25H24Z"/>
</svg>
